 <svg version="1.0" xmlns="http://www.w3.org/2000/svg" width="700.000000pt" height="184.000000pt" viewBox="0 0 700.000000 184.000000" preserveAspectRatio="xMidYMid meet">
<metadata>
Created by potrace 1.12, written by Peter Selinger 2001-2015
</metadata>
<g transform="translate(0.000000,184.000000) scale(0.100000,-0.100000)" fill="#000000" stroke="none">
<path d="M1830 1400 c-24 -24 -27 -86 -4 -118 10 -15 25 -22 47 -22 41 0 53 9
67 45 31 81 -53 152 -110 95z"></path>
<path d="M2176 1268 c-3 -29 -7 -71 -9 -93 l-2 -40 -52 -3 -53 -3 0 -49 0 -49
53 -3 52 -3 5 -220 c6 -248 10 -263 78 -292 38 -16 174 -15 200 1 7 4 12 31
12 63 0 48 -2 54 -17 48 -66 -25 -124 -11 -142 34 -7 17 -11 88 -9 196 l3 170
83 3 82 3 0 49 0 49 -82 3 -83 3 -3 93 -3 92 -54 0 -54 0 -5 -52z"></path>
<path d="M1335 1137 c-62 -21 -97 -42 -139 -84 -94 -93 -119 -244 -62 -371 36
-77 106 -144 177 -167 76 -26 197 -18 274 18 90 42 95 49 95 129 0 37 -2 68
-5 68 -2 0 -28 -18 -57 -40 -58 -44 -124 -70 -175 -70 -55 0 -128 37 -158 79
-22 33 -45 90 -45 113 0 5 101 8 224 8 132 0 227 4 231 10 10 16 -13 129 -37
176 -40 81 -117 128 -223 138 -37 4 -75 1 -100 -7z m148 -116 c29 -19 49 -43
60 -73 6 -17 -5 -18 -139 -18 l-146 0 19 32 c40 68 146 99 206 59z"></path>
<path d="M3368 1136 c-83 -23 -155 -85 -204 -176 -15 -28 -19 -56 -19 -135 0
-90 3 -105 28 -152 33 -63 83 -115 140 -145 36 -20 57 -23 147 -23 99 0 109 2
173 33 38 19 71 40 73 46 3 7 4 44 2 81 l-3 69 -36 -32 c-20 -18 -63 -44 -94
-58 -74 -34 -148 -29 -209 13 -46 33 -86 95 -86 136 l0 27 225 0 225 0 0 44
c0 104 -66 213 -153 254 -58 27 -149 35 -209 18z m142 -111 c32 -16 70 -61 70
-81 0 -11 -28 -14 -140 -14 -77 0 -140 4 -140 9 0 15 43 63 74 82 37 23 96 24
136 4z"></path>
<path d="M4719 1134 c-65 -20 -132 -83 -170 -159 -26 -54 -31 -76 -31 -137 -1
-89 12 -139 51 -200 56 -87 150 -136 243 -125 55 7 94 26 143 68 l35 31 0 -43
c-1 -148 -77 -239 -200 -239 -62 0 -108 18 -177 71 l-53 40 0 -79 0 -79 53
-26 c79 -38 139 -51 217 -44 119 10 208 71 259 177 l26 55 3 343 4 342 -54 0
c-51 0 -54 -2 -65 -31 l-12 -31 -43 30 c-75 51 -144 63 -229 36z m168 -115
c15 -5 45 -22 66 -36 l37 -26 0 -76 c0 -103 -14 -146 -64 -199 -37 -39 -49
-45 -93 -49 -197 -19 -254 300 -68 383 37 16 84 18 122 3z"></path>
<path d="M5458 1137 c-90 -26 -183 -111 -213 -197 -8 -23 -15 -76 -15 -116 0
-132 55 -230 161 -289 50 -28 61 -30 160 -30 101 0 109 2 175 35 l69 35 3 78
c2 42 0 77 -4 77 -3 0 -22 -13 -40 -30 -154 -135 -344 -90 -388 92 l-6 28 227
2 228 3 -2 57 c-3 105 -64 199 -152 237 -64 27 -144 34 -203 18z m140 -111
c33 -17 57 -44 66 -73 l7 -23 -147 0 -147 0 25 33 c55 71 132 96 196 63z"></path>
<path d="M6176 1138 c-25 -7 -56 -27 -83 -55 l-43 -45 0 46 0 46 -60 0 -60 0
0 -310 0 -311 63 3 62 3 5 190 c5 203 9 219 64 278 44 48 103 60 157 31 52
-27 59 -60 59 -294 l0 -210 66 0 65 0 -3 243 c-3 213 -5 246 -22 277 -30 57
-67 90 -120 105 -56 17 -94 18 -150 3z"></path>
<path d="M490 1080 l0 -50 163 0 c90 0 166 -3 170 -6 3 -4 -75 -95 -173 -204
l-180 -198 0 -56 0 -56 280 0 280 0 0 55 0 55 -185 0 c-102 0 -185 3 -185 8 0
4 79 94 175 201 l175 193 0 54 0 54 -260 0 -260 0 0 -50z"></path>
<path d="M1820 820 l0 -310 60 0 60 0 0 310 0 310 -60 0 -60 0 0 -310z"></path>
<path d="M2530 1080 l0 -50 165 0 c91 0 165 -4 165 -8 0 -4 -79 -95 -175 -202
l-175 -195 0 -57 0 -58 280 0 280 0 0 55 0 55 -191 0 -191 0 40 48 c23 26 104
117 181 202 l141 155 0 52 0 53 -260 0 -260 0 0 -50z"></path>
<path d="M3840 908 c0 -123 5 -239 10 -259 26 -94 100 -149 201 -149 70 0 114
18 159 64 19 20 38 36 43 36 4 0 7 -20 7 -45 l0 -45 60 0 60 0 0 310 0 310
-64 0 -64 0 -4 -187 c-3 -179 -4 -190 -28 -233 -34 -60 -80 -90 -139 -90 -53
1 -71 12 -97 60 -16 30 -19 63 -22 243 l-4 207 -59 0 -59 0 0 -222z"></path>
</g>
</svg>